<svg xmlns="http://www.w3.org/2000/svg" viewBox="0 0 64 64">
  <rect width="64" height="64" rx="12" fill="#17384e"/>
  <path d="M18 6v10M30 6v10M42 6v10M18 48v10M30 48v10M42 48v10M6 18h10M6 30h10M6 42h10M48 18h10M48 30h10M48 42h10" fill="none" stroke="#9a7442" stroke-width="3.2" stroke-linecap="round"/>
  <rect x="16" y="16" width="32" height="32" rx="7" fill="#f5f1e8"/>
  <path d="M24 32h7M37 32h7M31 32l3-5 3 5-3 5-3-5Z" fill="none" stroke="#17384e" stroke-width="3.2" stroke-linecap="round" stroke-linejoin="round"/>
  <circle cx="24" cy="32" r="3.4" fill="#b07042"/>
  <circle cx="44" cy="32" r="3.4" fill="#b07042"/>
  <circle cx="34" cy="27" r="2.5" fill="#17384e"/>
  <circle cx="34" cy="37" r="2.5" fill="#17384e"/>
</svg>
